<?xml version="1.0" standalone="no"?>
<!DOCTYPE svg PUBLIC "-//W3C//DTD SVG 20010904//EN"
 "http://www.w3.org/TR/2001/REC-SVG-20010904/DTD/svg10.dtd">
<svg version="1.0" xmlns="http://www.w3.org/2000/svg"
 width="512.000000pt" height="512.000000pt" viewBox="0 0 512.000000 512.000000"
 preserveAspectRatio="xMidYMid meet">

<g transform="translate(0.000000,512.000000) scale(0.100000,-0.100000)"
fill="#000000" stroke="none">
<path d="M2577 4953 c-1 -1 -38 -4 -82 -7 -141 -11 -214 -24 -248 -44 -18 -10
-68 -27 -111 -36 -42 -10 -97 -27 -122 -38 -25 -10 -57 -18 -72 -17 -15 2 -37
-2 -49 -9 -12 -7 -29 -12 -38 -12 -9 0 -26 -10 -38 -23 -12 -13 -47 -40 -77
-60 -30 -20 -104 -76 -164 -124 -60 -48 -122 -98 -140 -111 -17 -12 -87 -80
-156 -152 l-126 -129 -46 -148 c-26 -81 -49 -163 -53 -181 -4 -18 -13 -45 -20
-59 -8 -15 -11 -38 -9 -53 3 -14 1 -44 -5 -66 -5 -21 -17 -119 -26 -216 -16
-172 -16 -179 4 -270 11 -51 27 -113 36 -137 8 -24 15 -56 15 -72 0 -15 7 -35
15 -43 9 -9 24 -39 34 -68 29 -84 75 -180 115 -239 20 -29 36 -61 36 -71 0 -9
11 -25 23 -35 24 -18 257 -364 257 -381 0 -5 9 -21 21 -36 11 -14 18 -26 15
-26 -3 0 10 -21 29 -46 19 -25 35 -54 35 -64 0 -9 7 -23 14 -30 8 -6 20 -26
26 -44 7 -23 22 -38 55 -54 28 -13 50 -34 61 -54 9 -18 34 -55 55 -83 20 -27
46 -75 57 -105 10 -30 22 -62 26 -71 4 -10 -1 -19 -17 -28 -21 -11 -23 -19
-21 -68 1 -30 4 -57 7 -59 2 -2 0 -30 -5 -62 -6 -38 -5 -65 2 -80 5 -13 8 -28
5 -33 -4 -5 -1 -9 4 -9 6 0 11 -10 11 -23 0 -12 7 -32 15 -43 8 -12 11 -24 8
-28 -3 -3 -2 -6 4 -6 18 0 36 -84 42 -197 1 -7 10 -13 20 -13 29 0 35 -18 15
-41 -22 -24 -21 -70 2 -202 9 -51 18 -107 20 -125 2 -19 11 -46 19 -62 8 -15
12 -29 10 -32 -3 -2 4 -26 14 -54 17 -47 21 -51 112 -96 52 -26 99 -52 105
-57 7 -6 20 -10 30 -9 11 0 69 -13 129 -29 105 -28 113 -29 170 -15 33 7 73
14 88 15 15 1 31 7 35 13 4 5 29 18 56 28 26 10 69 38 93 62 25 23 51 45 59
48 8 3 14 13 14 22 0 10 6 25 14 33 15 17 109 200 151 295 l26 59 -21 21 c-40
44 -20 136 53 238 10 14 20 50 24 79 3 34 15 66 30 87 27 35 29 82 6 117 -7
11 -13 37 -13 57 0 37 -12 68 -37 96 -19 20 -17 26 30 147 56 142 194 364 218
350 8 -6 110 130 139 185 10 19 73 107 140 195 154 204 256 408 315 630 14 50
31 108 39 130 8 22 15 52 16 67 0 15 4 29 9 32 9 6 12 19 32 146 15 92 -3 304
-29 360 -9 19 -15 42 -14 51 3 18 -60 187 -83 222 -8 13 -26 55 -39 93 -28 81
-57 145 -72 159 -6 6 -32 47 -58 92 -60 104 -218 266 -331 340 -44 29 -91 60
-105 70 -14 10 -29 17 -33 15 -12 -4 -100 48 -117 69 -8 10 -31 21 -51 23 -20
3 -58 16 -85 30 -98 50 -157 76 -196 86 -21 6 -46 14 -55 17 -11 4 -14 2 -9
-5 5 -9 -6 -10 -41 -6 -26 3 -55 8 -63 12 -13 5 -178 10 -183 5z m66 -327 c61
-8 104 -19 115 -29 10 -10 28 -17 40 -17 11 0 24 -4 27 -10 3 -5 24 -10 45
-10 51 0 218 -61 278 -101 50 -34 208 -187 205 -199 -1 -3 9 -19 23 -35 13
-16 27 -40 31 -54 4 -14 29 -46 56 -70 55 -50 147 -182 147 -211 0 -11 9 -27
19 -37 10 -10 24 -34 29 -53 6 -19 20 -66 31 -105 24 -81 58 -450 43 -468 -5
-7 -10 -37 -10 -67 0 -61 -71 -312 -97 -340 -8 -9 -15 -27 -15 -39 0 -27 -96
-195 -149 -261 -19 -25 -77 -88 -128 -140 -51 -52 -93 -98 -93 -102 0 -4 -5
-8 -11 -8 -6 0 -36 -25 -66 -56 -48 -48 -56 -63 -61 -102 -3 -29 -18 -67 -39
-100 -37 -58 -66 -133 -78 -201 -4 -24 -16 -52 -27 -63 -18 -18 -29 -20 -82
-15 -33 4 -90 3 -126 -2 -56 -7 -71 -5 -104 11 -42 21 -85 21 -141 -2 -16 -7
-68 -13 -115 -14 -47 -1 -93 -6 -104 -11 -10 -4 -37 -9 -59 -9 l-40 -1 -21 75
c-28 94 -63 171 -122 266 -25 40 -43 77 -40 82 8 13 -40 77 -137 181 -45 49
-109 133 -142 187 -33 54 -88 139 -121 190 -66 99 -165 293 -171 334 -14 106
-27 385 -24 535 2 102 6 128 28 180 14 33 26 70 28 82 2 12 18 48 37 80 18 32
40 74 48 94 14 35 36 68 73 111 9 12 17 25 17 30 0 15 70 106 87 112 9 4 13 9
9 13 -9 9 44 63 62 63 8 0 31 17 51 38 27 27 63 46 129 71 51 18 90 37 87 41
-7 12 41 40 70 40 14 0 28 7 31 15 4 8 10 15 14 15 4 0 38 14 76 32 38 17 76
33 84 34 55 10 114 25 118 29 9 8 81 5 185 -9z m201 -3242 c24 -9 19 -37 -9
-58 l-25 -18 26 -20 c14 -11 23 -26 20 -34 -3 -7 3 -30 14 -51 22 -46 19 -54
-18 -44 -15 5 -55 4 -88 -1 -53 -9 -65 -8 -101 11 -32 16 -48 18 -72 11 -17
-5 -31 -6 -31 -3 0 3 -7 -1 -16 -8 -11 -9 -46 -14 -98 -15 -54 -1 -93 -7 -113
-18 -39 -20 -44 -20 -37 -1 4 8 1 15 -6 15 -7 0 -10 6 -7 13 3 7 -1 21 -9 32
-12 16 -11 22 7 42 20 20 21 24 7 46 -12 17 -13 26 -4 38 10 15 34 14 46 0 20
-25 47 -27 83 -9 20 11 44 18 52 14 8 -3 15 -1 15 5 0 6 26 9 63 8 34 -1 75 4
90 10 16 6 33 9 38 5 5 -3 9 0 9 5 0 6 17 11 38 12 20 1 48 5 62 9 33 11 45
11 64 4z m-64 -594 c0 -5 -9 -18 -21 -29 -17 -16 -20 -26 -15 -58 6 -32 2 -46
-24 -86 -36 -57 -53 -65 -90 -44 -25 15 -93 16 -137 2 -7 -2 -41 25 -76 60
-46 45 -64 71 -64 89 0 28 15 45 26 30 3 -5 14 -15 24 -23 15 -12 20 -11 37 4
10 9 30 18 44 19 14 0 26 5 26 9 0 5 28 7 63 6 35 -2 72 2 85 10 12 6 27 9 32
6 6 -3 10 -2 10 3 0 5 18 9 40 10 22 1 40 -2 40 -8z"/>
<path d="M2946 4171 c-9 -10 -19 -32 -21 -48 -2 -17 -18 -51 -35 -76 -19 -29
-28 -52 -23 -59 4 -7 6 -20 5 -28 -1 -9 9 -27 23 -40 14 -13 25 -32 25 -42 0
-10 3 -17 8 -17 27 5 34 -2 27 -28 -3 -16 -13 -35 -21 -44 -13 -15 -13 -17 6
-22 11 -3 23 -13 27 -24 3 -10 11 -21 16 -24 5 -4 12 -30 15 -58 2 -28 11 -56
18 -62 8 -6 14 -20 14 -30 0 -11 5 -19 10 -19 6 0 10 -4 10 -9 0 -5 5 -22 11
-38 6 -15 10 -30 9 -32 -1 -2 3 -7 8 -10 5 -3 12 -16 16 -28 5 -16 2 -25 -13
-33 -16 -8 -19 -15 -12 -33 6 -15 5 -29 -4 -40 -28 -39 10 -102 74 -121 25 -7
73 -26 105 -40 53 -24 61 -25 80 -11 37 26 51 39 69 67 9 16 23 27 29 25 23
-4 33 50 20 111 -7 32 -12 78 -12 103 0 24 -9 67 -19 94 -16 42 -18 58 -9 97
13 55 6 87 -26 126 -16 18 -23 36 -20 49 3 12 1 24 -5 27 -6 4 -11 20 -11 35
0 16 -7 34 -15 41 -8 7 -15 19 -15 26 0 8 -23 36 -51 64 -28 27 -48 54 -45 59
4 5 -1 11 -11 13 -9 2 -26 21 -38 43 -16 31 -25 39 -43 37 -12 -2 -22 2 -22 7
0 7 -27 11 -68 11 -55 0 -72 -4 -86 -19z"/>
<path d="M2992 2873 c-12 -2 -20 -8 -17 -13 9 -15 -25 -32 -59 -28 -30 3 -33
2 -25 -13 10 -20 -4 -69 -21 -69 -5 0 -10 -8 -10 -17 0 -10 -5 -35 -11 -55 -9
-36 -12 -38 -50 -38 -29 0 -38 -3 -33 -12 5 -7 7 -27 5 -45 -2 -30 7 -42 86
-119 97 -95 115 -105 156 -93 15 4 35 5 43 2 9 -3 14 2 14 15 0 11 9 23 19 27
10 3 24 19 31 36 9 22 19 29 34 27 30 -4 46 9 46 39 0 14 9 34 21 44 14 12 22
31 22 56 2 31 6 39 24 41 20 3 22 8 17 45 -5 44 -33 83 -68 93 -12 3 -44 21
-72 40 -51 33 -107 47 -152 37z"/>
<path d="M4502 4877 c-2 -9 -16 -20 -31 -23 -14 -4 -40 -20 -58 -37 -25 -23
-37 -28 -58 -23 -29 7 -65 -15 -65 -41 0 -7 -10 -17 -22 -22 -30 -12 -62 -40
-77 -69 -7 -12 -16 -20 -22 -17 -5 4 -9 2 -9 -3 0 -5 -14 -7 -30 -4 -18 3 -30
0 -28 -6 2 -5 -1 -10 -5 -11 -5 0 -19 -22 -32 -48 -28 -55 -25 -85 14 -112 15
-11 40 -41 57 -66 40 -64 129 -101 162 -68 15 15 84 14 125 -2 12 -5 17 -2 17
10 0 25 46 82 72 91 20 6 75 54 63 54 -4 0 6 11 63 73 14 15 28 18 70 14 46
-4 52 -2 47 12 -3 10 2 32 11 50 22 44 12 85 -36 148 -21 29 -46 66 -54 82
-19 36 -35 42 -110 38 -47 -1 -60 -6 -64 -20z"/>
<path d="M448 4861 c-16 -13 -40 -44 -55 -70 -14 -25 -37 -58 -51 -73 -20 -22
-24 -34 -19 -64 3 -20 13 -44 21 -53 7 -9 16 -25 18 -36 2 -12 13 -21 26 -23
12 -2 28 -12 35 -22 7 -10 32 -26 54 -35 32 -13 45 -25 53 -50 12 -36 27 -46
79 -52 18 -3 42 -13 53 -23 19 -18 88 -36 116 -31 6 1 12 -3 12 -9 0 -6 4 -8
10 -5 5 3 10 -3 10 -15 0 -17 5 -19 31 -15 46 8 85 31 108 64 12 16 21 32 21
35 0 3 18 22 40 42 23 21 39 42 37 48 -3 6 0 19 5 29 7 13 2 25 -21 47 -16 17
-31 38 -33 47 -2 9 -14 18 -27 20 -35 5 -47 18 -60 66 -12 41 -13 42 -52 41
-25 -1 -47 5 -63 17 -13 10 -38 20 -57 22 -19 2 -43 8 -54 14 -11 6 -24 9 -30
7 -18 -6 -45 22 -58 62 -14 38 -14 38 -68 39 -42 0 -59 -5 -81 -24z"/>
<path d="M4777 3631 c-21 -10 -46 -17 -57 -14 -10 3 -34 0 -54 -7 -62 -20 -83
-21 -90 -4 -5 13 -9 14 -21 4 -8 -7 -15 -10 -15 -7 0 3 -15 -9 -32 -26 -32
-32 -33 -33 -35 -138 -4 -124 5 -156 47 -170 16 -6 30 -15 30 -19 0 -5 15 -6
33 -3 27 4 38 -1 70 -33 20 -20 37 -32 37 -26 0 17 55 43 87 41 16 -1 55 8 87
20 78 28 90 27 129 -10 30 -29 32 -30 35 -10 2 12 9 21 15 21 7 0 23 9 36 19
23 17 25 28 33 142 l8 124 -30 28 c-17 15 -37 27 -45 27 -8 0 -15 7 -15 15 0
18 -21 20 -37 4 -8 -8 -17 -8 -32 0 -13 8 -34 8 -60 2 -34 -7 -42 -6 -63 15
l-24 24 -37 -19z"/>
<path d="M424 3626 c-7 -18 -55 -38 -86 -35 -12 1 -41 -6 -62 -15 -21 -10 -47
-18 -57 -19 -11 -1 -19 -5 -19 -9 0 -19 -49 -5 -76 22 -31 32 -44 37 -44 18 0
-7 -15 -23 -34 -36 -40 -27 -46 -59 -43 -201 2 -79 4 -84 32 -107 17 -13 35
-24 42 -24 7 0 16 -7 21 -16 7 -13 12 -14 29 -4 14 9 25 10 38 3 12 -7 31 -7
57 0 34 9 42 7 63 -13 24 -23 24 -23 62 -4 21 10 50 17 64 15 15 -1 43 5 63
13 43 18 56 17 73 -4 11 -13 14 -13 23 0 5 8 10 11 10 5 0 -5 15 7 34 27 l34
37 1 103 c0 119 -10 155 -48 165 -14 3 -31 13 -37 21 -8 11 -13 12 -18 4 -14
-23 -44 -12 -80 28 -26 29 -38 37 -42 26z"/>
<path d="M772 2505 c-12 -14 -30 -25 -39 -25 -10 0 -31 -14 -48 -31 -25 -26
-35 -29 -62 -24 -30 5 -35 3 -54 -30 -12 -19 -27 -35 -35 -35 -8 0 -14 -4 -14
-10 0 -5 -6 -10 -13 -10 -8 0 -22 -16 -33 -35 -10 -20 -24 -33 -31 -30 -7 2
-13 0 -13 -5 0 -5 -13 -7 -30 -3 -23 4 -30 2 -30 -11 0 -9 -4 -16 -8 -16 -16
0 -54 -97 -48 -118 4 -11 22 -32 41 -47 19 -14 35 -31 35 -38 1 -15 46 -67 58
-67 5 0 15 -7 22 -16 7 -8 23 -14 34 -12 12 1 27 -1 34 -6 9 -5 19 -1 29 14
16 22 16 22 121 4 17 -3 22 0 22 15 0 11 9 26 20 34 11 8 17 17 13 20 -3 4 9
13 28 21 19 8 58 43 88 80 30 36 62 67 70 67 9 1 33 1 55 0 33 0 37 2 33 19
-3 11 -1 20 4 20 5 0 9 9 9 19 0 11 5 21 11 23 21 7 0 75 -36 122 -18 24 -41
58 -50 75 -24 47 -52 61 -102 52 -23 -5 -46 -4 -51 1 -4 4 -18 -3 -30 -17z"/>
<path d="M4295 2511 c-3 -5 -23 -8 -45 -6 -49 4 -87 -24 -127 -94 -15 -25 -37
-59 -50 -74 -29 -36 -29 -52 1 -101 13 -22 22 -46 19 -53 -3 -9 4 -13 21 -13
15 0 31 -8 38 -21 7 -11 32 -29 56 -39 31 -14 47 -29 57 -55 9 -19 16 -35 18
-36 1 0 21 -2 45 -5 25 -3 52 -14 68 -29 14 -13 32 -21 39 -19 7 3 16 1 20 -5
3 -6 18 -11 33 -11 31 0 45 -8 58 -31 8 -16 13 -15 62 3 41 15 61 31 91 71 21
29 50 63 64 75 33 31 31 86 -5 117 -13 11 -27 29 -31 38 -3 9 -10 17 -14 16
-34 -6 -59 19 -72 69 -10 35 -12 37 -51 36 -26 -1 -48 5 -64 17 -13 11 -37 20
-53 21 -15 1 -33 5 -38 9 -6 4 -22 10 -35 13 -14 2 -33 7 -42 11 -17 7 -38 54
-38 86 0 20 -15 26 -25 10z"/>
</g>
</svg>
